<?xml version="1.0" encoding="windows-1252"?>
<!-- Generator: Adobe Illustrator 19.0.0, SVG Export Plug-In . SVG Version: 6.00 Build 0)  -->
<svg version="1.1" id="Capa_1" xmlns="http://www.w3.org/2000/svg" xmlns:xlink="http://www.w3.org/1999/xlink" x="0px" y="0px" viewBox="0 0 512 512" style="enable-background:new 0 0 512 512;" xml:space="preserve">
<g>
	<g>
		<path d="M257,0C116.39,0,0,114.39,0,255s116.39,257,257,257s255-116.39,255-257S397.61,0,257,0z M227,90c0-16.54,13.46-30,30-30    c16.53,0,30,13.46,30,30v180c0,16.54-13.47,30-30,30c-16.54,0-30-13.46-30-30V90z M384.29,382.28    C350.26,416.28,305.06,437,257,437c-48.07,0-95.27-20.72-129.28-54.7C93.72,348.27,75,303.06,75,255s18.72-93.27,52.7-127.28    c5.66-5.65,13.19-8.76,21.21-8.76c8.03,0,15.57,3.11,21.23,8.75c11.69,11.69,11.7,30.73,0.01,42.45    C147.49,192.8,135,222.94,135,255c0,32.05,12.48,62.18,35.15,84.86C191.8,361.5,224.73,373.9,257,373.9s63.2-12.4,84.85-34.06    C364.52,317.18,377,287.05,377,255s-12.48-62.18-35.16-84.86c-11.69-11.7-11.69-30.74,0.01-42.43c5.66-5.64,13.19-8.75,21.23-8.75    c8.03,0,15.56,3.11,21.21,8.76C418.28,161.73,437,206.94,437,255S418.28,348.27,384.29,382.28z"/>
	</g>
</g>
<g>
</g>
<g>
</g>
<g>
</g>
<g>
</g>
<g>
</g>
<g>
</g>
<g>
</g>
<g>
</g>
<g>
</g>
<g>
</g>
<g>
</g>
<g>
</g>
<g>
</g>
<g>
</g>
<g>
</g>
</svg>